<svg width="113" height="32" viewBox="0 0 113 32" fill="none" xmlns="http://www.w3.org/2000/svg">
<path d="M29.3163 17.3348L34.4133 8.25966H38L26.1071 30L14.4031 8.25966C14.192 6.99229 14.1612 6.27368 14.4031 4.96869C15.1718 3.32575 15.6566 2.44488 17.3291 1.47827C19.0616 0.834793 20.033 0.846384 21.7653 1.47827C23.692 2.51921 24.1282 3.3805 24.7857 4.96869C25.0284 6.25392 24.9954 6.97448 24.7857 8.25966L22.8036 12.3484L20.9158 9.1572L21.7653 7.36213C21.8499 6.62147 21.8016 6.19129 21.3878 5.3676C21.0258 4.85091 20.7287 4.60573 19.9719 4.27061C19.2624 4.19374 18.9164 4.27152 18.3673 4.56979C17.7798 5.06837 17.604 5.35425 17.3291 5.86623C17.1458 6.64824 17.2105 6.90589 17.3291 7.36213L26.1071 23.3183L29.3163 17.3348Z" fill="#0E0D0D"/>
<path d="M12.8929 30C11.4141 27.2409 6.96531 19.0301 1 8.25966H4.8699L12.8929 23.3183L16.3852 17.3348L18.0842 20.8252L12.8929 30Z" fill="#0E0D0D"/>
<path d="M29.3163 17.3348L34.4133 8.25966H38L26.1071 30L14.4031 8.25966C14.192 6.99229 14.1612 6.27368 14.4031 4.96869C15.1718 3.32575 15.6566 2.44488 17.3291 1.47827C19.0616 0.834793 20.033 0.846384 21.7653 1.47827C23.692 2.51921 24.1282 3.3805 24.7857 4.96869C25.0284 6.25392 24.9954 6.97448 24.7857 8.25966L22.8036 12.3484L20.9158 9.1572L21.7653 7.36213C21.8499 6.62147 21.8016 6.19129 21.3878 5.3676C21.0258 4.85091 20.7287 4.60573 19.9719 4.27061C19.2624 4.19374 18.9164 4.27152 18.3673 4.56979C17.7798 5.06837 17.604 5.35425 17.3291 5.86623C17.1458 6.64824 17.2105 6.90589 17.3291 7.36213L26.1071 23.3183L29.3163 17.3348Z" stroke="black"/>
<path d="M12.8929 30C11.4141 27.2409 6.96531 19.0301 1 8.25966H4.8699L12.8929 23.3183L16.3852 17.3348L18.0842 20.8252L12.8929 30Z" stroke="black"/>
<path d="M48.292 16.1202L50.356 10.7082L52.432 16.1202H54.052L57.304 7.60018H55.192L53.14 13.2762L51.028 7.60018H49.696L47.584 13.2762L45.532 7.60018H43.42L46.672 16.1202H48.292ZM58.607 7.60018V9.29218H60.635V7.60018H58.607ZM58.607 16.0002H60.635V10.6002H58.607V16.0002ZM69.3271 9.29218V7.60018H62.2471V9.28018L69.3271 9.29218ZM64.9831 14.3082L68.8711 10.6002H66.3391L62.1391 14.3082V16.0002H69.7351V14.3082H64.9831ZM70.7998 16.0002H72.9478L75.8878 9.88018L78.8278 16.0002H80.9758L76.9198 7.48018H74.8678L70.7998 16.0002ZM86.0514 12.8442L88.2714 16.0002H90.8034L88.2234 12.6762C89.3514 12.2802 89.9154 11.2482 89.9154 10.2282C89.9154 8.90818 89.0034 7.60018 87.1554 7.60018H82.0914V9.29218H86.8074C87.5754 9.29218 87.9594 9.76018 87.9594 10.2282C87.9594 10.6962 87.5754 11.1642 86.8074 11.1642H82.0914V12.8442H86.0514ZM92.0641 7.60018V9.28018H96.8161C98.3161 9.28018 99.0601 10.5402 99.0601 11.8002C99.0601 13.0482 98.3281 14.2962 96.8641 14.3202H92.0641V16.0002H96.8761C99.7441 15.9762 101.172 13.8882 101.172 11.8002C101.172 9.71218 99.7441 7.62418 96.8761 7.60018H92.0641ZM43.684 24.8002C43.684 27.7522 46.216 29.2762 48.376 29.2762C50.044 29.2762 51.484 28.5322 52.408 27.3922L50.908 26.0842C50.392 26.7442 49.648 27.3202 48.472 27.3202C46.684 27.3202 45.784 26.0602 45.784 24.8002C45.784 23.5282 46.684 22.2682 48.472 22.2682C49.396 22.2682 50.368 22.7962 50.908 23.4802L52.408 22.1722C51.508 21.0082 50.068 20.3242 48.388 20.3242C46.228 20.3242 43.684 21.8482 43.684 24.8002ZM62.4123 24.8002C62.4123 21.8002 59.8203 20.3242 57.6243 20.3242C55.4163 20.3242 52.8363 21.8002 52.8363 24.8002C52.8363 27.8002 55.4163 29.2762 57.6243 29.2762C59.8203 29.2762 62.4123 27.8002 62.4123 24.8002ZM60.3363 24.8002C60.3363 26.5162 58.8723 27.3442 57.6243 27.3442C56.3643 27.3442 54.9003 26.5162 54.9003 24.8002C54.9003 23.0842 56.3643 22.2442 57.6243 22.2442C58.8723 22.2442 60.3363 23.0842 60.3363 24.8002ZM56.6883 24.8122C56.6883 25.3762 57.0483 25.7362 57.6243 25.7362C58.1883 25.7362 58.5483 25.3762 58.5483 24.8122C58.5483 24.2482 58.1883 23.8762 57.6243 23.8762C57.0483 23.8762 56.6883 24.2482 56.6883 24.8122ZM63.8659 22.6882C63.8659 25.1842 65.9899 26.4202 68.1139 26.4202C70.2379 26.4202 72.3619 25.1842 72.3619 22.6882V20.6002H70.3339V22.6882C70.3339 23.9002 69.2299 24.5122 68.1139 24.5122C66.9979 24.5122 65.8939 23.9002 65.8939 22.6882V20.6002H63.8659V22.6882ZM64.2859 27.3082V29.0002H71.9419V27.3082H64.2859ZM74.0406 29.0002H76.0686V23.2162L80.9646 29.0242L83.2566 29.0002L76.0686 20.6002H74.0406V29.0002ZM81.2286 24.4882L83.2566 26.7562V20.6002H81.2286V24.4882ZM93.3365 21.6082C92.2805 20.8522 90.5285 20.3722 88.9205 20.3722C86.9765 20.3722 85.2485 21.0922 85.2485 22.9402C85.2485 26.2642 91.1405 25.2082 91.1405 26.7322C91.1405 27.2602 90.4445 27.5002 89.5565 27.5002C88.2845 27.5002 86.5925 27.0442 85.8005 26.3122L84.8045 27.9922C85.8245 28.7842 87.6485 29.2762 89.3525 29.2762C91.4405 29.2762 93.3605 28.5322 93.3605 26.6842C93.3605 23.3362 87.4445 24.4402 87.4445 22.9762C87.4445 22.4002 88.1165 22.1482 89.0045 22.1482C90.1325 22.1482 91.5845 22.5682 92.3525 23.2402L93.3365 21.6082ZM94.9352 20.6002V22.2922H102.435V20.6002H94.9352ZM94.9352 23.9602V25.6402H102.435V23.9602H94.9352ZM94.9712 27.3082V29.0002H102.435V27.3082H94.9712ZM104.193 29.0002H106.221V20.6002H104.193V29.0002ZM107.817 27.3082V29.0002H111.597V27.3082H107.817Z" fill="black"/>
</svg>
