<svg width="102" height="29" viewBox="0 0 102 29" fill="none" xmlns="http://www.w3.org/2000/svg">
<path d="M27.0204 15.0817L31.7041 7.25833H35L24.0714 26L13.3163 7.25833C13.1224 6.16577 13.094 5.54628 13.3163 4.42129C14.0228 3.00496 14.4683 2.24559 16.0051 1.4123C17.5972 0.857581 18.4897 0.867572 20.0816 1.4123C21.8521 2.30966 22.253 3.05216 22.8571 4.42129C23.0802 5.52924 23.0498 6.15041 22.8571 7.25833L21.0357 10.7831L19.301 8.03207L20.0816 6.48459C20.1593 5.84609 20.115 5.47525 19.7347 4.76517C19.4021 4.31975 19.1291 4.10839 18.4337 3.81949C17.7817 3.75322 17.4637 3.82027 16.9592 4.0774C16.4193 4.50722 16.2577 4.75366 16.0051 5.19503C15.8367 5.86917 15.8961 6.09129 16.0051 6.48459L24.0714 20.2399L27.0204 15.0817Z" fill="#0E0D0D"/>
<path d="M11.9286 26C10.5697 23.6215 6.48163 16.5432 1 7.25833H4.55612L11.9286 20.2399L15.1378 15.0817L16.699 18.0907L11.9286 26Z" fill="#0E0D0D"/>
<path d="M27.0204 15.0817L31.7041 7.25833H35L24.0714 26L13.3163 7.25833C13.1224 6.16577 13.094 5.54628 13.3163 4.42129C14.0228 3.00496 14.4683 2.24559 16.0051 1.4123C17.5972 0.857581 18.4897 0.867572 20.0816 1.4123C21.8521 2.30966 22.253 3.05216 22.8571 4.42129C23.0802 5.52924 23.0498 6.15041 22.8571 7.25833L21.0357 10.7831L19.301 8.03207L20.0816 6.48459C20.1593 5.84609 20.115 5.47525 19.7347 4.76517C19.4021 4.31975 19.1291 4.10839 18.4337 3.81949C17.7817 3.75322 17.4637 3.82027 16.9592 4.0774C16.4193 4.50722 16.2577 4.75366 16.0051 5.19503C15.8367 5.86917 15.8961 6.09129 16.0051 6.48459L24.0714 20.2399L27.0204 15.0817Z" stroke="black"/>
<path d="M11.9286 26C10.5697 23.6215 6.48163 16.5432 1 7.25833H4.55612L11.9286 20.2399L15.1378 15.0817L16.699 18.0907L11.9286 26Z" stroke="black"/>
<path d="M43.292 13.1202L45.356 7.70818L47.432 13.1202H49.052L52.304 4.60018H50.192L48.14 10.2762L46.028 4.60018H44.696L42.584 10.2762L40.532 4.60018H38.42L41.672 13.1202H43.292ZM53.607 4.60018V6.29218H55.635V4.60018H53.607ZM53.607 13.0002H55.635V7.60018H53.607V13.0002ZM64.3271 6.29218V4.60018H57.2471V6.28018L64.3271 6.29218ZM59.9831 11.3082L63.8711 7.60018H61.3391L57.1391 11.3082V13.0002H64.7351V11.3082H59.9831ZM65.7998 13.0002H67.9478L70.8878 6.88018L73.8278 13.0002H75.9758L71.9198 4.48018H69.8678L65.7998 13.0002ZM81.0514 9.84418L83.2714 13.0002H85.8034L83.2234 9.67618C84.3514 9.28018 84.9154 8.24818 84.9154 7.22818C84.9154 5.90818 84.0034 4.60018 82.1554 4.60018H77.0914V6.29218H81.8074C82.5754 6.29218 82.9594 6.76018 82.9594 7.22818C82.9594 7.69618 82.5754 8.16418 81.8074 8.16418H77.0914V9.84418H81.0514ZM87.0641 4.60018V6.28018H91.8161C93.3161 6.28018 94.0601 7.54018 94.0601 8.80018C94.0601 10.0482 93.3281 11.2962 91.8641 11.3202H87.0641V13.0002H91.8761C94.7441 12.9762 96.1721 10.8882 96.1721 8.80018C96.1721 6.71218 94.7441 4.62418 91.8761 4.60018H87.0641ZM38.684 21.8002C38.684 24.7522 41.216 26.2762 43.376 26.2762C45.044 26.2762 46.484 25.5322 47.408 24.3922L45.908 23.0842C45.392 23.7442 44.648 24.3202 43.472 24.3202C41.684 24.3202 40.784 23.0602 40.784 21.8002C40.784 20.5282 41.684 19.2682 43.472 19.2682C44.396 19.2682 45.368 19.7962 45.908 20.4802L47.408 19.1722C46.508 18.0082 45.068 17.3242 43.388 17.3242C41.228 17.3242 38.684 18.8482 38.684 21.8002ZM57.4123 21.8002C57.4123 18.8002 54.8203 17.3242 52.6243 17.3242C50.4163 17.3242 47.8363 18.8002 47.8363 21.8002C47.8363 24.8002 50.4163 26.2762 52.6243 26.2762C54.8203 26.2762 57.4123 24.8002 57.4123 21.8002ZM55.3363 21.8002C55.3363 23.5162 53.8723 24.3442 52.6243 24.3442C51.3643 24.3442 49.9003 23.5162 49.9003 21.8002C49.9003 20.0842 51.3643 19.2442 52.6243 19.2442C53.8723 19.2442 55.3363 20.0842 55.3363 21.8002ZM51.6883 21.8122C51.6883 22.3762 52.0483 22.7362 52.6243 22.7362C53.1883 22.7362 53.5483 22.3762 53.5483 21.8122C53.5483 21.2482 53.1883 20.8762 52.6243 20.8762C52.0483 20.8762 51.6883 21.2482 51.6883 21.8122ZM58.8659 19.6882C58.8659 22.1842 60.9899 23.4202 63.1139 23.4202C65.2379 23.4202 67.3619 22.1842 67.3619 19.6882V17.6002H65.3339V19.6882C65.3339 20.9002 64.2299 21.5122 63.1139 21.5122C61.9979 21.5122 60.8939 20.9002 60.8939 19.6882V17.6002H58.8659V19.6882ZM59.2859 24.3082V26.0002H66.9419V24.3082H59.2859ZM69.0406 26.0002H71.0686V20.2162L75.9646 26.0242L78.2566 26.0002L71.0686 17.6002H69.0406V26.0002ZM76.2286 21.4882L78.2566 23.7562V17.6002H76.2286V21.4882ZM79.8285 21.8002C79.8285 24.7522 82.3605 26.2762 84.5205 26.2762C86.1885 26.2762 87.6285 25.5322 88.5525 24.3922L87.0525 23.0842C86.5365 23.7442 85.7925 24.3202 84.6165 24.3202C82.8285 24.3202 81.9285 23.0602 81.9285 21.8002C81.9285 20.5282 82.8285 19.2682 84.6165 19.2682C85.5405 19.2682 86.5125 19.7962 87.0525 20.4802L88.5525 19.1722C87.6525 18.0082 86.2125 17.3242 84.5325 17.3242C82.3725 17.3242 79.8285 18.8482 79.8285 21.8002ZM83.6805 21.8122C83.6805 22.3762 84.0405 22.7362 84.6165 22.7362C85.1805 22.7362 85.5405 22.3762 85.5405 21.8122C85.5405 21.2482 85.1805 20.8762 84.6165 20.8762C84.0405 20.8762 83.6805 21.2482 83.6805 21.8122ZM89.9586 17.6002V19.2922H91.9866V17.6002H89.9586ZM89.9586 26.0002H91.9866V20.6002H89.9586V26.0002ZM93.7906 26.0002H95.8186V17.6002H93.7906V26.0002ZM97.4146 24.3082V26.0002H101.195V24.3082H97.4146Z" fill="black"/>
</svg>
